PathFileType	4	(X/Y/Z)	C:/Users/opensim2020/Desktop/walking_exp_matlab/subject02_walking15_straight_04.trc																																																																																																																												
DataRate	CameraRate	NumFrames	NumMarkers	Units	OrigDataRate	OrigDataStartFrame	OrigNumFrames																																																																																																																								
100	100	6	42	mm	100	1717	152																																																																																																																								
Frame#	Time	LFHD			RFHD			LBHD			RBHD			C7			T10			CLAV			STRN			RBAK			LSHO			LUPA			LELB			LFRM			LWRA			LWRB			LFIN			RSHO			RUPA			RELB			RFRM			RWRA			RWRB			RFIN			LASI			RASI			LPSI			RPSI			LTHI			LKNE			LTIB			LANK			LHEE			LTOE			RTHI			RKNE			RTIB			RANK			RHEE			RTOE			*39			*40			*41		
		X1	Y1	Z1	X2	Y2	Z2	X3	Y3	Z3	X4	Y4	Z4	X5	Y5	Z5	X6	Y6	Z6	X7	Y7	Z7	X8	Y8	Z8	X9	Y9	Z9	X10	Y10	Z10	X11	Y11	Z11	X12	Y12	Z12	X13	Y13	Z13	X14	Y14	Z14	X15	Y15	Z15	X16	Y16	Z16	X17	Y17	Z17	X18	Y18	Z18	X19	Y19	Z19	X20	Y20	Z20	X21	Y21	Z21	X22	Y22	Z22	X23	Y23	Z23	X24	Y24	Z24	X25	Y25	Z25	X26	Y26	Z26	X27	Y27	Z27	X28	Y28	Z28	X29	Y29	Z29	X30	Y30	Z30	X31	Y31	Z31	X32	Y32	Z32	X33	Y33	Z33	X34	Y34	Z34	X35	Y35	Z35	X36	Y36	Z36	X37	Y37	Z37	X38	Y38	Z38	X39	Y39	Z39	X40	Y40	Z40	X41	Y41	Z41	X42	Y42	Z42
																																																																																																																															
39	0.38	-594.30231	1755.06274	987.02521	-599.48608	1743.4729	1130.94128	-717.5907	1669.32654	976.81104	-734.89777	1655.42236	1119.93591	-766.68549	1535.17297	1043.09839	-821.70099	1262.81177	1053.75903	-627.48669	1468.40503	1049.73352	-577.06409	1295.66272	1064.77637	-834.17346	1363.18384	1101.49316	-676.245	1508.1012	873.20819	-664.57092	1306.83496	792.16364	-652.55719	1165.29443	780.28931	-616.50537	1036.49426	779.66693	-546.35596	925.8819	831.48029	-583.06207	918.42261	789.48871	-551.23737	860.74597	792.52911	-718.57117	1505.85913	1234.75427	-790.05945	1331.86523	1317.95166	-799.0722	1185.47498	1347.0769	-780.64056	1064.63647	1367.2915	-743.6178	933.48065	1345.42883	-788.62756	934.17242	1380.15967	-760.98071	865.25092	1375.39697	-616.64728	983.41931	938.24341	-610.50006	991.82068	1185.61121	-816.25647	1050.1438	1013.58813	-821.36945	1055.78918	1130.43103	-715.43237	669.44025	914.27661	-771.34039	475.50198	962.12531	-849.05402	296.12216	977.77643	-868.77557	77.12486	1031.97583	-903.77545	51.74252	1087.07739	-715.28308	38.37259	1010.82166	-630.20538	701.95483	1290.76917	-580.1239	500.38516	1275.15198	-656.79858	328.39993	1275.00769	-708.77075	143.15874	1240.07581	-738.92456	92.35226	1176.72424	-580.12891	59.00386	1282.32373	-705.0672	1815.48596	1069.47656	-2845.97192	1034.39075	3356.98755	NaN	NaN	NaN
40	0.39	-580.19153	1753.22388	988.81586	-585.46381	1741.26807	1132.69324	-703.37402	1667.47217	978.41022	-720.82715	1653.17114	1121.47131	-752.58307	1533.34717	1044.52808	-808.44836	1261.1394	1055.55444	-613.47681	1466.0354	1050.73425	-563.63312	1292.95361	1064.94666	-820.39899	1361.37061	1102.68274	-662.53998	1506.31726	874.39642	-648.86145	1305.42639	793.43353	-633.85706	1163.69531	781.88074	-592.96313	1035.85229	783.82166	-519.35126	929.53845	838.75916	-555.26172	919.33026	796.57556	-521.46405	863.27728	800.91473	-703.55707	1503.14136	1236.16663	-777.82312	1329.74976	1317.98254	-789.11212	1183.47656	1346.4032	-774.35437	1062.11072	1365.97839	-742.01074	929.84186	1343.39465	-786.55042	932.15393	1379.03845	-761.54401	862.05524	1373.30823	-606.22955	980.76941	936.91455	-596.14801	989.52783	1185.0625	-804.57117	1048.2085	1016.86041	-807.90039	1053.7323	1133.58337	-708.24573	668.46674	915.41046	-766.78448	475.01248	962.94867	-846.74536	296.6781	978.6814	-868.54608	77.64541	1032.41711	-903.60992	52.40512	1087.59534	-715.2077	38.31188	1010.69891	-611.86902	701.29041	1291.74829	-560.63983	498.99445	1274.73621	-627.09528	322.298	1277.05786	-667.7113	133.98579	1244.3363	-695.7373	81.40597	1182.37622	-533.09467	58.40757	1284.48511	-690.93713	1813.5304	1071.85327	-2845.2644	1034.44116	3360.52515	NaN	NaN	NaN
41	0.4	-566.07434	1751.10669	990.70569	-571.35406	1738.72827	1134.59314	-689.16083	1665.52783	980.1394	-706.71722	1650.62061	1123.05371	-738.43878	1531.21826	1045.98669	-795.09949	1259.16235	1057.46448	-599.37781	1463.36926	1051.84119	-550.15485	1290.00452	1065.30627	-806.6123	1359.24841	1104.00281	-648.6261	1504.18823	875.62421	-632.74542	1303.82336	794.60303	-615.37469	1161.96497	783.24182	-570.24347	1035.79285	787.76141	-493.00977	933.07037	845.44299	-527.87781	920.97931	803.53461	-492.22461	866.15326	809.27655	-688.71692	1500.27148	1237.57043	-765.52454	1327.5011	1317.95447	-779.01831	1181.40576	1345.74512	-767.84192	1059.76819	1365.03137	-740.18701	926.45135	1341.75916	-784.06879	930.26776	1378.04822	-761.71124	859.25671	1371.59851	-596.01483	978.01605	935.67834	-581.72974	986.84973	1184.84192	-792.85028	1045.86169	1020.29785	-794.32977	1051.20361	1136.76978	-700.69116	667.43896	916.32257	-761.79944	474.45334	963.78607	-844.22504	297.18008	979.73352	-868.21594	78.18055	1032.80322	-903.31659	53.11091	1088.06897	-715.08795	38.25277	1010.52789	-594.10669	700.01392	1292.58496	-541.86908	497.08408	1274.13708	-597.58118	316.46136	1279.21216	-626.20831	125.57639	1248.80164	-652.18207	71.08776	1187.90918	-485.96445	58.88761	1286.66797	-676.87433	1811.18298	1073.31079	-2846.03394	1034.47339	3357.32935	NaN	NaN	NaN
42	0.41	-551.7309	1748.59473	992.91187	-557.24805	1735.95752	1136.40906	-675.13391	1663.04028	981.72473	-692.591	1647.86743	1124.67957	-724.2453	1528.75305	1047.45032	-781.63916	1256.92078	1059.44275	-585.22345	1460.27332	1053.05017	-536.57056	1286.82874	1065.82397	-792.67871	1356.82715	1105.33923	-634.67859	1501.83948	876.95801	-616.94714	1302.0575	795.90155	-597.11475	1160.03833	784.45526	-546.93781	1035.11926	791.95172	-467.25067	937.12311	852.42267	-501.21072	922.47803	810.18542	-463.40649	869.47406	817.61926	-673.82458	1497.36487	1239.31616	-752.99481	1325.11475	1318.04785	-768.70013	1179.30542	1345.15332	-761.06525	1057.50134	1364.33875	-737.96521	923.29553	1340.41321	-781.27417	928.56049	1377.28174	-761.41583	856.88489	1370.49817	-584.83679	975.38293	934.78058	-567.27039	983.72308	1184.90613	-780.95935	1043.11658	1023.84814	-780.7121	1048.2301	1139.96655	-693.72925	666.24957	917.23486	-756.40039	473.80103	964.62592	-841.35046	297.80716	980.54224	-867.84558	78.73669	1033.24158	-902.71423	53.59531	1088.27942	-715.02051	38.16096	1010.35449	-576.79614	698.16681	1293.45837	-523.78619	494.64279	1273.35034	-568.17377	311.01468	1281.47229	-584.42682	118.23156	1253.45935	-607.75653	62.04013	1193.40112	-439.16476	60.29778	1288.66296	-662.75885	1808.43616	1076.0238	-2845.96118	1034.43335	3357.22705	NaN	NaN	NaN
43	0.42	-537.72784	1745.95569	994.82263	-543.11536	1732.9707	1138.32227	-660.91034	1660.18115	983.55035	-678.474	1644.81885	1126.38232	-710.01978	1526.02893	1049.02051	-768.07831	1254.40332	1061.49854	-571.00922	1457.2395	1054.03943	-522.87927	1283.16992	1066.42163	-778.62927	1354.09021	1106.73462	-620.48785	1499.22156	878.34155	-601.02429	1300.03674	797.11835	-579.14197	1158.08508	785.54089	-524.56122	1035.10083	795.87189	-441.49088	941.61151	859.20697	-474.63959	924.63586	816.95337	-434.86035	873.35028	825.67651	-658.91504	1494.245	1240.73071	-740.43701	1322.62964	1318.25452	-758.2843	1177.12939	1344.62671	-754.24371	1055.28918	1363.96106	-735.34381	920.38818	1339.54199	-777.99146	926.98199	1376.6488	-760.54736	854.81769	1369.87402	-573.77734	972.64783	934.02899	-552.6593	980.31866	1185.49609	-768.88654	1040.03284	1027.54285	-766.966	1044.83484	1143.18286	-686.31775	665.21722	918.091	-750.83032	473.09174	965.59039	-838.11676	298.38303	981.35626	-867.4032	79.38584	1033.59265	-902.59662	54.63655	1088.91589	-714.88202	38.0701	1010.21185	-559.95551	695.53876	1294.29395	-506.30396	491.89468	1272.58105	-539.12823	306.08957	1283.45142	-542.68866	112.32572	1258.28601	-563.61041	54.62394	1198.97253	-393.11288	63.29426	1290.99976	-648.69501	1805.88074	1077.63196	-2845.31812	1034.16284	3360.4873	NaN	NaN	NaN
44	0.43	-523.87158	1743.32581	996.44452	-528.96423	1729.76575	1140.24866	-647.01007	1657.64612	985.18427	-664.27673	1641.63318	1128.1687	-695.82599	1523.08228	1050.65857	-754.40729	1251.6543	1063.70764	-556.73285	1453.68677	1055.36755	-509.0943	1279.79004	1067.17004	-764.40765	1351.12585	1108.19861	-606.32971	1496.43066	879.85284	-585.47168	1297.83594	798.23602	-561.41687	1155.91809	786.61121	-502.47083	1034.89417	799.59106	-416.8078	946.15161	865.60126	-448.27325	927.08044	823.28833	-406.61624	877.70105	833.68652	-644.1402	1490.95032	1242.2002	-727.77368	1320.06787	1318.64478	-747.75623	1174.91418	1344.22449	-746.98297	1053.22473	1363.80005	-732.04523	917.63763	1339.11902	-774.40558	925.62964	1376.41882	-759.3855	852.77875	1369.56311	-562.25598	969.8728	933.80072	-538.05377	976.59552	1186.25928	-756.46039	1036.65955	1031.3468	-753.08643	1041.15051	1146.30481	-678.6554	664.0257	918.76788	-745.16602	472.44885	966.6059	-834.9812	299.13156	982.27026	-866.99225	80.24492	1033.99109	-902.25659	55.69973	1089.43433	-714.80933	37.95959	1010.08313	-543.63745	692.29297	1294.9845	-489.24496	488.81696	1271.76648	-510.32242	301.87418	1285.47339	-501.22684	107.79221	1262.89124	-519.41223	48.81109	1204.35034	-347.93536	67.92074	1293.14075	-634.64478	1802.64685	1080.32043	-2845.22461	1034.401	3360.20435	NaN	NaN	NaN
